<svg version="1.1" id="Layer_1" xmlns="http://www.w3.org/2000/svg" xmlns:xlink="http://www.w3.org/1999/xlink" x="0px" y="0px" viewBox="-13.20 -4.48 191.40 64.96" enable-background="new 0 0 165 56" xml:space="preserve">
<g>
	<path fill="#FFFFFF" d="M10.647,0.185c49.687,0,99.374,0,149.059,0c-0.461,1.896-0.868,3.806-1.404,5.681
		c-0.338,1.182,0.252,1.371,1.18,1.375c1.378,0.006,2.76-0.03,4.137,0.029c1.315,0.056,1.55,0.358,1.286,1.654
		c-0.412,2.011-0.907,4.005-1.336,6.013c-2.689,12.623-5.311,25.259-8.088,37.862c-0.816,3.705-0.031,3.378-4.087,3.379
		c-46.894,0.006-93.786,0.004-140.678,0.004c-0.788,0-1.576-0.004-2.364-0.027C7.62,56.133,7.31,55.828,7.506,55.04
		c0.284-1.139,0.511-2.292,0.702-3.449c0.352-2.135,0.125-2.407-2.006-2.464C4.135,49.071,2.068,49.049,0,49.011
		c0-0.195,0-0.392,0-0.588C0.197,48,0.479,47.596,0.577,47.152c1.004-4.577,1.98-9.16,2.961-13.742
		C5.909,22.335,8.278,11.26,10.647,0.185z"/>
	<path fill="#0D8F38" d="M10.647,0.185c49.687,0,99.374,0,149.059,0c-0.461,1.896-0.868,3.806-1.404,5.681
		c-0.338,1.182,0.252,1.371,1.18,1.375c1.378,0.006,2.76-0.03,4.137,0.029c1.315,0.056,1.55,0.358,1.286,1.654
		c-0.412,2.011-0.907,4.005-1.336,6.013c-2.689,12.623-5.311,25.259-8.088,37.862c-0.816,3.705-0.031,3.378-4.087,3.379
		c-46.894,0.006-93.786,0.004-140.678,0.004c-0.788,0-1.576-0.004-2.364-0.027C7.62,56.133,7.31,55.828,7.506,55.04
		c0.284-1.139,0.511-2.292,0.702-3.449c0.352-2.135,0.125-2.407-2.006-2.464C4.135,49.071,2.068,49.049,0,49.011
		c0-0.195,0-0.392,0-0.588C0.197,48,0.479,47.596,0.577,47.152c1.004-4.577,1.98-9.16,2.961-13.742
		C5.909,22.335,8.278,11.26,10.647,0.185z M75.027,46.66c22.669,0,45.337,0,68.005,0c0.689,0,1.381,0.018,2.07-0.004
		c1.812-0.057,1.837-0.058,2.236-1.925c2.751-12.815,5.489-25.635,8.233-38.454c0.741-3.468,1.475-3.64-2.998-3.638
		C107.139,2.654,61.704,2.647,16.269,2.648c-0.789,0-1.578,0.002-2.364,0.044c-0.78,0.041-1.267,0.449-1.42,1.237
		c-0.112,0.577-0.271,1.144-0.394,1.719C9.426,18.183,6.819,30.731,4.066,43.247c-0.86,3.908-0.506,3.408,2.956,3.409
		C29.69,46.664,52.359,46.66,75.027,46.66z"/>
	<path fill="#0D8F38" d="M71.83,30.186c-2.069,0-4.139-0.033-6.206,0.011c-1.602,0.033-1.846,0.354-1.73,1.954
		c0.132,1.844,1.294,3.09,3.139,3.301c1.405,0.159,2.944,0.155,3.905-0.903c2.034-2.24,4.567-1.206,6.921-1.341
		c0.518-0.03,0.605,0.391,0.343,0.81c-2.073,3.31-4.863,5.666-8.866,6.163c-1.648,0.206-3.354,0.161-5.013,0.006
		c-3.802-0.356-6.216-3.021-6.409-6.82c-0.271-5.346,1.022-10.155,5.148-13.819c3.714-3.299,8.142-3.666,12.743-2.342
		c2.13,0.612,3.35,2.279,4.036,4.356c0.833,2.524,0.517,5.021-0.019,7.537c-0.184,0.861-0.729,1.077-1.489,1.076
		c-2.167,0-4.334,0-6.501,0C71.83,30.178,71.83,30.182,71.83,30.186z M69.511,26.069c0.877,0,1.755-0.042,2.629,0.008
		c2.259,0.128,2.436-0.678,1.569-2.697c-0.6-1.397-2.361-2.206-3.928-1.854c-1.449,0.326-2.779,0.943-3.582,2.292
		c-0.339,0.569-0.592,1.189-0.884,1.786c0.619,0.155,1.231,0.384,1.859,0.448C67.947,26.13,68.732,26.071,69.511,26.069z"/>
	<path fill="#0D8F38" d="M134.277,16.51c1.268,0.105,2.57,0.066,3.801,0.342c3.822,0.859,5.074,2.75,4.405,6.599
		c-0.385,2.21-0.909,4.397-1.382,6.593c-0.388,1.812-0.839,3.614-1.168,5.438c-0.153,0.842-0.182,1.734-0.091,2.586
		c0.16,1.516,0.211,1.559-1.087,1.618c-1.178,0.055-2.361,0.055-3.538-0.006c-0.453-0.022-1.226-0.199-1.285-0.442
		c-0.447-1.845-1.279-1.13-2.229-0.463c-2.322,1.63-4.977,1.744-7.647,1.416c-2.505-0.308-3.971-2.087-4.034-4.599
		c-0.112-4.477,2.73-7.94,7.377-8.889c1.534-0.313,3.108-0.435,4.655-0.694c0.964-0.162,1.941-0.337,2.862-0.653
		c1.038-0.356,1.574-1.258,1.474-2.292c-0.096-0.971-0.908-1.483-1.856-1.612c-1.813-0.245-3.708-0.237-4.832,1.397
		c-0.933,1.358-2.057,1.638-3.49,1.503c-0.958-0.09-1.912-0.208-2.869-0.314c0.335-0.968,0.509-2.035,1.034-2.885
		c1.711-2.763,4.29-4.227,7.534-4.5c0.78-0.065,1.572-0.01,2.358-0.01C134.271,16.599,134.275,16.554,134.277,16.51z M128.85,36.057
		c2.364,0.011,5.035-1.918,5.798-4.265c0.24-0.734,0.293-1.529,0.432-2.297c-0.732,0.06-1.48,0.044-2.195,0.192
		c-1.34,0.278-2.667,0.627-3.987,0.988c-1.104,0.304-1.887,0.992-2.312,2.072C125.819,34.688,126.745,36.048,128.85,36.057z"/>
	<path fill="#0D8F38" d="M90.998,40.236c-2.179,0.08-4.31-0.01-6.3-1.13c-2.019-1.134-2.883-2.861-3.01-5.051
		c-0.052-0.892,0.274-1.522,1.334-1.503c0.985,0.018,1.973,0.024,2.956-0.02c1.155-0.053,1.818,0.173,2.401,1.465
		c1.104,2.448,6.029,2.556,7.676,0.358c0.616-0.823,0.507-1.768-0.473-2.206c-1.152-0.516-2.407-0.818-3.635-1.154
		c-1.136-0.311-2.31-0.489-3.439-0.82c-4.095-1.206-5.021-4.142-3.299-8.126c1.396-3.234,4.229-4.88,7.628-5.335
		c1.934-0.258,3.953-0.211,5.896,0.019c3.525,0.418,5.507,2.71,5.426,5.844c-0.027,1.055-0.357,1.69-1.533,1.644
		c-0.688-0.028-1.379-0.001-2.068,0.006c-1.196,0.012-2.096,0.005-2.741-1.51c-0.886-2.078-4.786-2.275-6.448-0.606
		c-0.86,0.864-0.818,1.859,0.254,2.419c0.854,0.446,1.831,0.678,2.772,0.937c1.61,0.442,3.276,0.716,4.848,1.265
		c3.612,1.26,4.675,3.636,3.288,7.195c-1.565,4.016-4.803,5.771-8.876,6.295C92.783,40.331,91.884,40.236,90.998,40.236z"/>
	<path fill="#0D8F38" d="M19.722,39.69c-0.591,0-1.181-0.001-1.771,0.001c-0.938,0.003-1.123-0.441-0.937-1.313
		c0.939-4.395,1.831-8.802,2.739-13.204c0.118-0.574,0.263-1.144,0.356-1.722c0.285-1.765,0.283-1.811-1.524-2.029
		c-0.852-0.103-1.302-0.31-0.987-1.26c0.121-0.366,0.122-0.772,0.17-1.16c0.139-1.095,0.595-1.897,1.86-1.797
		c1.491,0.118,2.05-0.602,2.314-2.002c0.366-1.945,1.155-3.753,2.853-4.979c2.348-1.696,5.027-1.41,7.679-1.183
		c0.173,0.015,0.47,0.433,0.441,0.624c-0.157,1.06-0.341,2.122-0.624,3.154c-0.272,0.993-1.191,0.87-1.958,0.906
		c-1.234,0.057-2.019,0.654-2.385,1.822c-0.295,0.944,0.015,1.438,1.033,1.62c2.518,0.449,2.433,0.43,1.904,2.784
		c-0.246,1.092-0.74,1.404-1.776,1.479c-2.492,0.18-2.497,0.225-2.999,2.593c-0.955,4.493-1.875,8.993-2.858,13.479
		c-0.474,2.166-0.524,2.156-2.645,2.208c-0.295,0.008-0.591,0.001-0.886,0.001C19.722,39.706,19.722,39.698,19.722,39.69z"/>
	<path fill="#0D8F38" d="M112.145,40.172c-0.257-0.031-1.15-0.062-2.007-0.258c-2.459-0.561-3.297-1.787-2.827-4.249
		c0.532-2.783,1.167-5.546,1.763-8.317c0.288-1.338,0.627-2.666,0.867-4.012c0.241-1.346,0.092-1.674-1.4-1.874
		c-1.222-0.163-1.11-0.712-0.964-1.583c0.259-1.547,0.569-2.892,2.648-2.75c0.996,0.068,1.225-0.86,1.409-1.617
		c0.281-1.139,0.513-2.292,0.713-3.447c0.14-0.812,0.575-1.201,1.393-1.19c0.098,0.001,0.196-0.012,0.295-0.011
		c4.101,0.049,5.059-0.723,3.813,4.044c-0.477,1.828-0.265,2.058,1.833,2.252c1.1,0.102,1.38,0.482,1.082,1.467
		c-0.084,0.278-0.097,0.58-0.126,0.872c-0.122,1.241-0.67,1.871-2.057,1.951c-2.184,0.126-2.174,0.23-2.621,2.306
		c-0.655,3.059-1.32,6.115-1.975,9.173c-0.435,2.029-0.354,2.15,1.58,2.552c1.54,0.318,1.542,0.319,1.227,1.841
		c-0.059,0.287-0.137,0.571-0.207,0.856c-0.447,1.775-0.541,1.863-2.336,1.989C113.759,40.201,113.265,40.172,112.145,40.172z"/>
	<path fill="#0D8F38" d="M44.259,39.712c-0.197,0-0.393,0.004-0.59-0.001c-2.331-0.061-2.591-0.342-2.112-2.586
		c1.305-6.104,2.682-12.192,3.935-18.306c0.248-1.21,0.746-1.692,1.936-1.631c0.98,0.05,1.964,0.015,2.947,0.04
		c0.693,0.018,1.082,0.363,1.085,1.087c0.007,1.643,0.648,0.9,1.293,0.354c1.451-1.228,3.019-2.161,5.041-2.06
		c1.003,0.05,1.465,0.455,1.279,1.456c-0.107,0.575-0.286,1.137-0.407,1.709c-0.535,2.539-0.531,2.539-3.046,2.836
		c-3.116,0.368-5.001,1.912-5.787,5c-0.722,2.835-1.276,5.712-1.898,8.572c-0.083,0.382-0.114,0.775-0.204,1.153
		c-0.551,2.331-0.555,2.331-2.882,2.375C44.652,39.714,44.456,39.711,44.259,39.712z"/>
	<path fill="#0D8F38" d="M33.26,39.71c-0.394-0.001-0.788,0.014-1.18-0.004c-1.76-0.076-1.813-0.091-1.447-1.855
		c1.285-6.212,2.584-12.419,3.931-18.618c0.434-1.998,0.508-1.982,2.516-2.041c4.094-0.121,4.085-0.123,3.188,4
		c-1.16,5.339-2.296,10.682-3.457,16.02c-0.537,2.472-0.552,2.469-2.962,2.501C33.654,39.714,33.457,39.712,33.26,39.71z"/>
	<path fill="#0D8F38" d="M38.428,14.323c-3.268,0-2.646,0.25-2.229-2.878c0.076-0.57,0.288-1.128,0.495-1.671
		c0.097-0.253,0.327-0.645,0.504-0.649c1.645-0.035,3.292-0.028,4.934,0.059c0.163,0.009,0.455,0.645,0.412,0.953
		c-0.158,1.148-0.361,2.301-0.702,3.406c-0.104,0.338-0.677,0.684-1.079,0.746C40.002,14.406,39.208,14.323,38.428,14.323z"/>
</g>
</svg>
