<svg xml:space="preserve" style="enable-background:new 0 0 326.9 67.8;" viewBox="-12.80 -5.42 185.60 78.65" height="34" width="95" y="0px" x="0px" xmlns:xlink="http://www.w3.org/1999/xlink" xmlns="http://www.w3.org/2000/svg" version="1.1">
<style type="text/css">
	.st3{fill:#DC0B2C;}
	.st4{fill:#ffffff;}
</style>
<path d="M13.8,53.8l0-19.9c-1.3-0.2-3.2-0.4-4.8-0.6l0-6.6c4.6-0.5,9.5-0.7,14.9-0.5l0,27.6L13.8,53.8z" class="st4"></path>
<path d="M18.8,24.1c-3.3,0-6-2.6-6-5.8c0-3.2,2.7-5.8,6-5.8c3.3,0,6,2.6,6.1,5.8C24.9,21.5,22.1,24.1,18.8,24.1z" class="st4"></path>
<path d="M35.7,54.5c-2.6,0-5.2-0.2-7.7-0.8l0.6-9.4c2,0.7,5.2,1.3,8,1.3c2.5,0,4.1-1.1,4.1-2.8c0-5.4-14-2.2-14-15
	c0-7.4,5.7-12.2,15.6-12.2c1.9,0,4.5,0.2,6.8,0.6l-0.6,8.9c-2.2-0.6-4.4-1-6.7-1c-2.9,0-4.1,1.2-4.1,2.6c0,4.7,14,2.9,14,14.6
	C51.8,48.8,45.7,54.5,35.7,54.5z" class="st4"></path>
<polygon points="69.8,53.7 59.5,53.7 59.5,25.2 51.4,25.2 51.4,16.3 77.9,16.3 77.9,25.2 69.8,25.2" class="st4"></polygon>
<path d="M96,55c-3.3,0-6-2.6-6-5.8c0-3.2,2.7-5.8,6-5.8c3.3,0,6,2.6,6,5.8C102,52.4,99.3,55,96,55z" class="st3"></path>
<path d="M101,40.9l-10.3,0L79,16.3l11.2,0l3.5,8.1c0.9,2.2,1.7,4,2.2,5.7H96c0.7-2,1.7-4.2,2.7-6.5l3.2-7.3l10.9,0
	L101,40.9z" class="st4"></path>
<polygon points="113.6,53.7 113.6,16.3 123.9,16.3 123.9,44.5 134.2,44.5 134.2,53.7" class="st4"></polygon>
<polygon points="135.9,53.7 135.9,16.3 157.8,16.3 157.8,25.1 146.2,25.1 146.2,30.3 157.1,30.3 157.1,38.7
	146.2,38.8 146.2,44.8 157.8,44.8 157.8,53.7" class="st4"></polygon>
</svg>
