<svg xmlns="http://www.w3.org/2000/svg" id="Vrstva_1" viewBox="-45.35 -15.87 657.60 230.14"><defs><style>      .st0 {        fill: #0f42e8;      }    </style></defs><path class="st0" d="M100.5,103h-9.3v25.3h-17.3V56.7h28.2c8.5,0,15.1,1.9,19.9,5.7,4.8,3.8,7.2,9.1,7.2,16s-1,9.1-3,12.4c-2,3.3-5.2,5.9-9.5,8l15,28.9v.7h-18.5l-12.6-25.3ZM91.2,89.8h10.9c3.3,0,5.7-.9,7.4-2.6s2.5-4.1,2.5-7.2-.8-5.5-2.5-7.3c-1.7-1.8-4.1-2.6-7.4-2.6h-10.9v19.7Z"></path><path class="st0" d="M162.3,129.4c-8.2,0-14.8-2.4-19.8-7.3-5.1-4.9-7.6-11.2-7.6-19v-1.4c0-5.4,1-10.3,3-14.4s5-7.4,8.8-9.7c3.9-2.3,8.5-3.4,13.8-3.4s13.4,2.3,17.7,7,6.5,11.1,6.5,19.4v6.4h-33c.6,3,1.9,5.3,3.9,7,2,1.7,4.6,2.6,7.8,2.6,5.2,0,9.3-1.8,12.3-5.5l7.6,9c-2.1,2.9-5,5.1-8.8,6.8-3.8,1.7-7.9,2.5-12.2,2.5ZM160.5,87c-4.9,0-7.7,3.2-8.7,9.6h16.7v-1.3c0-2.7-.6-4.7-2-6.2-1.4-1.5-3.4-2.2-6.1-2.2Z"></path><path class="st0" d="M209.4,75.1l.5,6.2c3.8-4.8,8.8-7.2,15.2-7.2s11.3,2.7,13.6,8c3.6-5.3,8.8-8,15.6-8,10.8,0,16.3,6.5,16.6,19.6v34.6h-16.6v-33.6c0-2.7-.5-4.7-1.4-6-.9-1.2-2.6-1.9-5-1.9s-5.7,1.5-7.3,4.4v.7s0,36.4,0,36.4h-16.6v-33.5c0-2.8-.4-4.8-1.3-6.1-.9-1.2-2.6-1.9-5.1-1.9s-5.6,1.5-7.3,4.4v37.1h-16.6v-53.2h15.5Z"></path><path class="st0" d="M312.9,128.4c-.6-1.1-1.1-2.7-1.6-4.8-3.1,3.8-7.3,5.8-12.8,5.8s-9.3-1.5-12.8-4.6c-3.5-3-5.3-6.8-5.3-11.4s2.1-10.1,6.4-13.1,10.5-4.4,18.6-4.4h5.1v-2.8c0-4.9-2.1-7.4-6.3-7.4s-5.9,1.9-5.9,5.8h-16.6c0-5.1,2.2-9.3,6.6-12.5s10-4.8,16.8-4.8,12.2,1.7,16.1,5c3.9,3.3,6,7.9,6.1,13.6v23.6c0,4.9.8,8.6,2.3,11.2v.8h-16.6ZM302.5,117.6c2.1,0,3.8-.4,5.1-1.3,1.4-.9,2.3-1.9,2.9-3v-8.5h-4.8c-5.8,0-8.7,2.6-8.7,7.8s.5,2.7,1.5,3.7c1,.9,2.3,1.4,3.9,1.4Z"></path><path class="st0" d="M351,62.3v12.9h9.9v7h-9.9v33.1c0,2.1.4,3.7,1.3,4.8s2.4,1.6,4.5,1.6,2.5-.2,4.3-.6v7.3c-2.4.7-4.7,1-7,1-4.1,0-7.1-1.2-9.2-3.7-2.1-2.5-3.1-6-3.1-10.5v-33h-9.7v-7h9.7v-12.9h9.1Z"></path><path class="st0" d="M391.3,129.4c-7.2,0-13.1-2.4-17.6-7.1-4.5-4.7-6.8-11.1-6.8-19v-1.7c0-5.3,1-10,3-14.1,2-4.1,4.8-7.4,8.5-9.7s7.6-3.5,11.8-3.5c6.9,0,12.3,2.3,16.1,6.8,3.8,4.6,5.8,11.1,5.8,19.6v3.8h-36.1c.1,5.2,1.7,9.5,4.6,12.7,2.9,3.2,6.7,4.8,11.2,4.8s5.9-.7,8.2-2c2.2-1.3,4.2-3.1,5.9-5.2l5.6,4.3c-4.5,6.9-11.2,10.3-20.1,10.3ZM390.2,81.6c-3.7,0-6.8,1.3-9.3,4s-4,6.4-4.6,11.2h26.7v-.7c-.3-4.6-1.5-8.2-3.7-10.8-2.2-2.5-5.2-3.8-9.1-3.8Z"></path><path class="st0" d="M441.6,121.9c3.2,0,6.1-1,8.5-3,2.4-2,3.8-4.4,4-7.4h8.6c-.2,3.1-1.2,6-3.1,8.7-1.9,2.8-4.5,5-7.7,6.6-3.2,1.6-6.7,2.5-10.3,2.5-7.3,0-13-2.4-17.3-7.3-4.3-4.8-6.4-11.5-6.4-19.9v-1.5c0-5.2,1-9.8,2.9-13.8,1.9-4,4.6-7.2,8.2-9.4,3.6-2.2,7.8-3.3,12.6-3.3s10.9,1.8,14.9,5.4c4,3.6,6.1,8.2,6.3,13.9h-8.6c-.3-3.4-1.6-6.3-3.9-8.5-2.3-2.2-5.2-3.3-8.7-3.3s-8.2,1.7-10.8,5c-2.5,3.3-3.8,8.1-3.8,14.4v1.7c0,6.1,1.3,10.9,3.8,14.2,2.5,3.3,6.1,5,10.8,5Z"></path><path class="st0" d="M477.5,81.6c4-5,9.3-7.4,15.7-7.4,11.3,0,16.9,6.3,17,19v35.2h-9.1v-35.2c0-3.8-.9-6.7-2.6-8.5-1.7-1.8-4.4-2.8-8-2.8s-5.5.8-7.8,2.4c-2.2,1.6-4,3.6-5.2,6.2v37.9h-9.1V52.8h9.1v28.8Z"></path><rect class="st0" x="56.7" y="128.4" width="17.2" height="17.2"></rect></svg>
