<?xml version="1.0" encoding="UTF-8"?><svg id="Layer_1" xmlns="http://www.w3.org/2000/svg" viewBox="-53.92 -14.99 781.91 217.42"><defs><style>.cls-1{fill:#881737;}</style></defs><g id="Layer_2"><g><path class="cls-1" d="M207.56,119.56c-1.59-1.11-2.7-3.17-2.7-5.55,0-3.81,3.01-6.82,6.82-6.82,1.9,0,3.17,.63,4.12,1.27,5.07,3.65,10.62,6.03,16.97,6.03s9.67-2.38,9.67-6.34v-.16c0-3.65-2.22-5.55-13.48-8.4-13.48-3.49-22.04-7.14-22.04-20.3v-.16c0-12.05,9.67-20.14,23.31-20.14,8.09,0,15.06,2.06,21.09,5.87,1.59,.95,3.17,3.01,3.17,5.87,0,3.81-3.01,6.82-6.82,6.82-1.43,0-2.54-.32-3.65-1.11-4.92-2.85-9.36-4.44-13.95-4.44-5.55,0-8.56,2.54-8.56,5.87v.16c0,4.44,2.85,5.87,14.43,8.72,13.48,3.49,21.09,8.4,21.09,19.98v.16c0,13.16-10.15,20.61-24.42,20.61-8.72,0-17.6-2.7-25.05-7.93h0Z"/><path class="cls-1" d="M274.16,119.24v-52.01c0-4.12,3.17-7.29,7.29-7.29h36.95c3.65,0,6.5,3.01,6.5,6.5s-3.01,6.5-6.5,6.5h-29.65v13.48h25.37c3.65,0,6.5,3.01,6.5,6.5s-3.01,6.5-6.5,6.5h-25.37v13.95h30.13c3.65,0,6.5,3.01,6.5,6.5s-3.01,6.5-6.5,6.5h-37.42c-4.12,.16-7.29-3.01-7.29-7.14h-.01Z"/><path class="cls-1" d="M342.19,66.91c0-4.12,3.17-7.29,7.29-7.29h1.59c3.49,0,5.55,1.74,7.61,4.28l28.22,37.1v-34.41c0-3.96,3.17-7.29,7.29-7.29s7.29,3.17,7.29,7.29v52.96c0,4.12-3.17,7.29-7.29,7.29h-.48c-3.49,0-5.55-1.74-7.61-4.28l-29.49-38.37v35.68c0,3.96-3.17,7.29-7.29,7.29s-7.29-3.17-7.29-7.29v-52.96s.16,0,.16,0Z"/><path class="cls-1" d="M422.26,66.75c0-4.12,3.17-7.29,7.29-7.29s7.29,3.17,7.29,7.29v53.12c0,4.12-3.17,7.29-7.29,7.29s-7.29-3.17-7.29-7.29v-53.12Z"/><path class="cls-1" d="M457.78,66.91c0-4.12,3.17-7.29,7.29-7.29h1.59c3.17,0,5.39,1.59,6.66,3.81l17.76,28.86,17.76-28.86c1.59-2.54,3.65-3.65,6.5-3.65h1.59c4.12,0,7.29,3.17,7.29,7.29v52.96c0,4.12-3.17,7.29-7.29,7.29s-7.29-3.33-7.29-7.29v-33.14l-12.84,19.82c-1.59,2.22-3.49,3.65-6.03,3.65s-4.6-1.43-6.03-3.65l-12.69-19.5v33.14c0,3.96-3.17,7.14-7.29,7.14s-7.14-3.17-7.14-7.14v-53.44h.16Z"/><path class="cls-1" d="M544.68,119.24v-52.01c0-4.12,3.17-7.29,7.29-7.29h36.95c3.65,0,6.5,3.01,6.5,6.5s-3.01,6.5-6.5,6.5h-29.65v13.48h25.37c3.65,0,6.5,3.01,6.5,6.5s-3.01,6.5-6.5,6.5h-25.37v13.95h30.13c3.65,0,6.5,3.01,6.5,6.5s-3.01,6.5-6.5,6.5h-37.42c-3.96,.16-7.29-3.01-7.29-7.14h-.01Z"/><path class="cls-1" d="M612.7,67.23c0-4.12,3.17-7.29,7.29-7.29h18.71c20.93,0,35.36,14.43,35.36,33.14v.16c0,18.71-14.43,33.3-35.36,33.3h-18.71c-4.12,0-7.29-3.17-7.29-7.29v-52.01h0Zm26,46.13c12.05,0,20.14-8.09,20.14-19.82v-.32c0-11.73-8.09-20.14-20.14-20.14h-11.26v40.12h11.26s0,.16,0,.16Z"/></g><path class="cls-1" d="M142.55,78.33c6.18-7.29,9.83-16.65,9.83-26.96,0-14.75-7.61-28.38-20.14-35.99C115.91,5.07,97.51,0,77.22,0,34.88,0,4.12,28.22,4.12,67.07v.32c0,14.43,3.49,25.69,9.04,34.57C5.07,109.57,0,120.51,0,132.56c0,13.64,6.5,26.48,17.6,34.41,18.39,13.16,41.07,20.46,64.06,20.46,44.4,0,75.32-28.07,75.32-68.18v-.32c-.16-18.08-6.03-31.08-14.43-40.59h0Zm-10.47,40.74c0,26.32-19.82,43.45-50.58,43.45-17.76,0-35.36-5.71-49.63-15.86-4.44-3.17-7.14-8.56-7.14-14.27,0-9.83,7.77-17.44,17.6-17.44,3.96,0,7.29,1.11,10.62,3.33,9.51,6.98,19.03,10.31,29.18,10.31,3.17,0,13.32-.48,13.32-6.98v-.32c0-2.85,0-5.71-21.57-11.26-24.58-6.34-44.87-13.8-44.87-42.81v-.32c0-24.89,19.98-42.34,48.36-42.34,15.54,0,29.81,3.96,42.02,11.73,3.96,2.38,8.4,7.61,8.4,14.91,0,9.83-7.77,17.44-17.6,17.44-3.33,0-6.34-.79-9.36-2.54-9.04-5.23-16.49-7.77-23.79-7.77-6.82,0-11.26,2.38-11.26,6.18v.32c0,3.96,.95,6.03,23.31,11.73,22.36,5.87,43.13,14.91,43.13,42.02v.48h-.14Z"/></g></svg>
