<?xml version="1.0" encoding="UTF-8"?>
<svg id="Vrstva_1" data-name="Vrstva 1" xmlns="http://www.w3.org/2000/svg" viewBox="-36.16 -10.69 524.32 154.94">
  <defs>
    <style>
      .cls-1 {
        fill: #bc4444;
      }

      .cls-2 {
        fill: #ffffff;
      }
    </style>
  </defs>
  <path class="cls-1" d="M120.93,32.01h-17.78c-3.93,0-7.12-3.19-7.12-7.12V7.12c0-3.93-3.19-7.12-7.12-7.12h-37.95c-1.89,0-3.7.75-5.03,2.08L2.08,45.93c-1.33,1.33-2.08,3.15-2.08,5.03v37.95c0,3.93,3.19,7.12,7.12,7.12h17.78c3.93,0,7.12,3.19,7.12,7.12v17.78c0,3.93,3.19,7.12,7.12,7.12h37.95c1.89,0,3.7-.75,5.03-2.08l43.85-43.85c1.33-1.33,2.08-3.15,2.08-5.03v-37.95c0-3.93-3.19-7.12-7.12-7.12ZM96.04,64.03v24.89c0,3.93-3.19,7.12-7.12,7.12h-49.79c-3.93,0-7.12-3.19-7.12-7.12v-49.79c0-3.93,3.19-7.12,7.12-7.12h49.79c3.93,0,7.12,3.19,7.12,7.12v24.89Z"/>
  <path class="cls-2" d="M266.57,123l.74,3.42c-.23.08-.57.17-1,.27-.43.1-.96.15-1.58.17-1.1.03-2.08-.14-2.96-.5-.88-.37-1.57-.94-2.09-1.71-.51-.77-.76-1.74-.76-2.9v-10.33h-2.64v-3.39h2.64v-4.45h4.38v4.45h3.67v3.39h-3.67v9.6c0,.59.09,1.04.27,1.35.18.31.42.52.72.64.3.11.63.17.99.17.27,0,.53-.02.76-.06.23-.04.41-.08.53-.11ZM212.2,101.84h4.39v24.77h-4.31v-2.93h-.27c-.23.45-.55.93-.98,1.43-.43.5-.99.93-1.69,1.29-.7.36-1.58.53-2.65.53-1.46,0-2.77-.37-3.92-1.12-1.15-.75-2.06-1.84-2.73-3.27-.67-1.43-1.01-3.16-1.01-5.2s.34-3.81,1.02-5.23c.68-1.42,1.6-2.5,2.76-3.23,1.16-.73,2.46-1.09,3.88-1.09,1.09,0,1.98.18,2.68.55.7.37,1.26.81,1.67,1.32.41.51.73.99.96,1.45h.18v-9.26ZM212.28,117.32c0-1.2-.17-2.25-.5-3.13-.33-.89-.83-1.58-1.48-2.07-.65-.49-1.45-.74-2.39-.74s-1.79.25-2.44.76c-.65.51-1.15,1.21-1.48,2.1-.33.89-.5,1.92-.5,3.07s.17,2.19.5,3.1c.33.91.83,1.62,1.49,2.14.66.52,1.47.78,2.42.78s1.72-.25,2.37-.76c.65-.5,1.15-1.21,1.49-2.11.34-.9.51-1.95.51-3.16ZM232.13,118.79c0,.94-.19,1.73-.59,2.35s-.89,1.09-1.49,1.41c-.6.31-1.23.47-1.87.47-1.05,0-1.89-.35-2.54-1.04-.64-.69-.97-1.63-.97-2.81v-11.15h-4.38v11.83c0,1.48.26,2.75.79,3.79.52,1.04,1.25,1.84,2.18,2.38.93.54,2.01.82,3.22.82,1.39,0,2.57-.33,3.53-.99.96-.66,1.64-1.51,2.06-2.55h.19v3.3h4.25v-18.58h-4.38v10.76ZM249.84,116.01l-3.17-.68c-.94-.22-1.62-.5-2.03-.83-.41-.34-.61-.78-.6-1.32,0-.63.3-1.14.91-1.54.62-.39,1.38-.59,2.29-.59.68,0,1.25.11,1.72.33.47.22.84.5,1.12.86.28.35.47.73.59,1.14l3.99-.44c-.3-1.58-1.07-2.83-2.33-3.76-1.25-.93-2.97-1.39-5.15-1.39-1.48,0-2.79.23-3.93.7-1.13.46-2.02,1.12-2.65,1.96-.63.84-.94,1.84-.94,2.98,0,1.35.42,2.47,1.27,3.36.85.88,2.17,1.51,3.95,1.88l3.17.67c.85.19,1.48.45,1.89.8s.61.79.61,1.32c0,.63-.32,1.16-.95,1.58-.63.43-1.47.64-2.51.64s-1.83-.21-2.45-.64c-.63-.43-1.04-1.06-1.23-1.9l-4.27.41c.27,1.71,1.09,3.04,2.48,4s3.22,1.43,5.49,1.43c1.55,0,2.92-.25,4.11-.75s2.13-1.2,2.8-2.09c.67-.89,1.01-1.92,1.02-3.09,0-1.33-.44-2.41-1.3-3.23-.86-.82-2.17-1.42-3.92-1.8ZM193.26,108.61c-.95-.55-2.07-.82-3.36-.82-1.39,0-2.55.31-3.49.92-.94.61-1.62,1.44-2.05,2.48h-.22v-3.16h-4.18v18.58h4.38v-10.88c0-.89.17-1.66.5-2.29.33-.63.8-1.11,1.39-1.45.59-.33,1.27-.5,2.04-.5,1.13,0,2.01.35,2.65,1.05.64.7.96,1.67.96,2.92v11.15h4.38v-11.83c0-1.48-.25-2.75-.78-3.79s-1.27-1.83-2.23-2.38ZM446.77,116.01l-3.17-.68c-.94-.22-1.62-.5-2.03-.83-.41-.34-.61-.78-.6-1.32,0-.63.3-1.14.91-1.54.62-.39,1.38-.59,2.29-.59.68,0,1.25.11,1.72.33.47.22.84.5,1.12.86.28.35.47.73.59,1.14l3.99-.44c-.3-1.58-1.07-2.83-2.33-3.76-1.25-.93-2.97-1.39-5.15-1.39-1.48,0-2.79.23-3.93.7-1.13.46-2.02,1.12-2.65,1.96-.63.84-.94,1.84-.94,2.98,0,1.35.42,2.47,1.27,3.36.85.88,2.17,1.51,3.95,1.88l3.17.67c.85.19,1.48.45,1.89.8s.61.79.61,1.32c0,.63-.32,1.16-.95,1.58-.63.43-1.47.64-2.51.64s-1.83-.21-2.45-.64c-.63-.43-1.04-1.06-1.23-1.9l-4.27.41c.27,1.71,1.09,3.04,2.48,4,1.39.96,3.22,1.43,5.49,1.43,1.55,0,2.92-.25,4.11-.75s2.13-1.2,2.8-2.09c.67-.89,1.01-1.92,1.02-3.09,0-1.33-.44-2.41-1.3-3.23-.86-.82-2.17-1.42-3.92-1.8ZM171.46,126.61h4.49v-24.77h-4.49v24.77ZM273.34,69.52l6.62-8.08,17.44,26.17h16.1l-23.9-35.15,23.62-28.5h-16.13l-22.91,28.07h-.84v-28.07h-13.46v63.65h13.46v-18.09ZM405.16,87.61h-14.42l21.97-63.65h17.34l21.94,63.65h-14.42l-4.71-14.51h-22.98l-4.72,14.51ZM413.3,62.59h16.15l-7.82-24.09h-.5l-7.84,24.09ZM171.49,87.61h13.3v-52.56h19.49v-11.1h-52.28v11.1h19.49v52.56ZM252.06,76.52h-29.56v-15.2h27.23v-11.1h-27.23v-15.17h29.43v-11.1h-42.89v63.65h43.02v-11.1ZM290.37,122.06h-.19l-4.28-14.03h-4.64l6.74,18.96-.38,1c-.27.7-.59,1.2-.97,1.51-.38.3-.82.46-1.32.47-.5,0-1.07-.08-1.7-.27l-1.02,3.41c.3.12.7.23,1.2.32.5.09,1.05.14,1.65.14,1.14,0,2.13-.19,2.96-.56.83-.37,1.53-.92,2.1-1.62.57-.71,1.03-1.55,1.38-2.53l7.44-20.83h-4.66l-4.29,14.03ZM373.35,46.18v41.43h13.05V23.96h-16.6l-17.53,42.77h-.75l-17.53-42.77h-16.6v63.65h13.05v-41.59h.53l16.47,41.27h8.89l16.47-41.12h.53ZM386.22,123.11c-.23.04-.48.06-.76.06-.36,0-.69-.06-.99-.17-.3-.11-.54-.32-.72-.64-.18-.31-.27-.76-.27-1.35v-9.6h3.67v-3.39h-3.67v-4.45h-4.38v4.45h-2.64v3.39h2.64v10.33c0,1.16.24,2.13.76,2.9.51.77,1.21,1.34,2.09,1.71.88.37,1.87.53,2.96.5.62-.02,1.15-.07,1.58-.17.43-.1.76-.19,1-.27l-.74-3.42c-.12.03-.3.07-.53.11ZM370.01,118.79c0,.94-.19,1.73-.59,2.35s-.89,1.09-1.49,1.41c-.6.31-1.23.47-1.87.47-1.05,0-1.89-.35-2.54-1.04-.64-.69-.97-1.63-.97-2.81v-11.15h-4.38v11.83c0,1.48.26,2.75.79,3.79s1.25,1.84,2.18,2.38c.93.54,2.01.82,3.22.82,1.39,0,2.57-.33,3.53-.99.96-.66,1.64-1.51,2.06-2.55h.19v3.3h4.25v-18.58h-4.38v10.76ZM389.57,126.61h4.38v-18.58h-4.38v18.58ZM391.77,100.64c-.69,0-1.29.23-1.79.7-.5.46-.75,1.02-.75,1.67s.25,1.21.75,1.68c.5.47,1.1.7,1.79.7s1.3-.23,1.8-.7c.5-.46.74-1.02.74-1.68s-.25-1.21-.74-1.68c-.5-.47-1.09-.7-1.8-.7ZM346.24,112.35c.73,1.44,1.09,3.12,1.09,5.04s-.37,3.6-1.09,5.03c-.73,1.44-1.76,2.55-3.09,3.35-1.33.8-2.9,1.2-4.72,1.2s-3.39-.4-4.72-1.2c-1.33-.8-2.36-1.91-3.09-3.35-.73-1.44-1.09-3.11-1.09-5.03s.37-3.6,1.09-5.04c.73-1.44,1.76-2.56,3.09-3.36,1.33-.8,2.9-1.2,4.72-1.2s3.39.4,4.72,1.2c1.33.8,2.36,1.92,3.09,3.36ZM342.9,117.38c0-1.14-.16-2.17-.49-3.09-.33-.92-.82-1.66-1.48-2.21-.66-.55-1.48-.82-2.47-.82s-1.84.27-2.51.82c-.67.55-1.16,1.28-1.49,2.21-.33.92-.49,1.95-.49,3.09s.16,2.15.49,3.07c.33.92.82,1.65,1.49,2.19.67.54,1.5.82,2.51.82s1.81-.27,2.47-.82c.66-.54,1.16-1.28,1.48-2.19.33-.92.49-1.94.49-3.07ZM413.37,112.35c.73,1.44,1.09,3.12,1.09,5.04s-.37,3.6-1.09,5.03c-.73,1.44-1.76,2.55-3.09,3.35-1.33.8-2.9,1.2-4.72,1.2s-3.39-.4-4.72-1.2c-1.33-.8-2.36-1.91-3.09-3.35-.73-1.44-1.09-3.11-1.09-5.03s.37-3.6,1.09-5.04c.73-1.44,1.76-2.56,3.09-3.36,1.33-.8,2.9-1.2,4.72-1.2s3.39.4,4.72,1.2c1.33.8,2.36,1.92,3.09,3.36ZM410.02,117.38c0-1.14-.16-2.17-.49-3.09s-.82-1.66-1.48-2.21c-.66-.55-1.48-.82-2.47-.82s-1.84.27-2.51.82c-.67.55-1.16,1.28-1.49,2.21-.33.92-.49,1.95-.49,3.09s.16,2.15.49,3.07c.33.92.82,1.65,1.49,2.19.67.54,1.5.82,2.51.82s1.81-.27,2.47-.82c.66-.54,1.16-1.28,1.48-2.19.33-.92.49-1.94.49-3.07ZM325.17,114.8c-.69-.56-1.47-1.03-2.33-1.4-.87-.37-1.77-.67-2.7-.88l-2.32-.58c-.51-.12-1.01-.27-1.51-.45-.5-.18-.96-.4-1.37-.66-.41-.26-.74-.58-.97-.96-.24-.38-.36-.83-.36-1.34,0-.62.19-1.17.54-1.66.35-.48.87-.87,1.54-1.15.67-.28,1.47-.42,2.41-.42,1.33,0,2.41.29,3.25.88.83.59,1.31,1.41,1.42,2.47h4.32c-.02-1.39-.42-2.63-1.17-3.71-.76-1.08-1.8-1.92-3.13-2.53-1.33-.61-2.87-.91-4.63-.91s-3.29.3-4.66.91c-1.37.61-2.45,1.46-3.25,2.56-.79,1.1-1.19,2.37-1.19,3.83,0,1.77.59,3.19,1.77,4.26,1.18,1.07,2.79,1.86,4.83,2.39l2.82.73c.89.23,1.66.48,2.33.77.67.29,1.18.64,1.55,1.06.37.42.56.96.57,1.6,0,.71-.22,1.33-.64,1.86-.42.53-1,.94-1.73,1.23-.74.29-1.59.44-2.57.44s-1.78-.14-2.53-.42c-.75-.28-1.36-.71-1.83-1.28s-.73-1.29-.8-2.15h-4.41c.06,1.64.49,3.04,1.29,4.18.79,1.14,1.9,2.02,3.31,2.61,1.42.6,3.09.89,5.01.89s3.68-.31,5.07-.93c1.4-.62,2.47-1.48,3.21-2.58.74-1.1,1.11-2.38,1.11-3.83,0-1.07-.2-2.01-.6-2.81-.4-.8-.95-1.48-1.64-2.04ZM350.15,126.61h4.38v-24.77h-4.38v24.77ZM278.5,107.76c-1.06,0-2.01.29-2.84.88-.83.58-1.41,1.41-1.75,2.49h-.19v-3.1h-4.24v18.58h4.38v-10.92c0-.79.18-1.49.54-2.09.36-.61.86-1.08,1.49-1.42.63-.34,1.35-.51,2.15-.51.37,0,.76.03,1.16.08.4.05.69.11.88.18v-4.03c-.2-.04-.45-.07-.76-.09-.3-.02-.57-.03-.82-.03ZM430.53,108.61c-.96-.55-2.07-.82-3.36-.82-1.39,0-2.55.31-3.49.92-.94.61-1.62,1.44-2.05,2.48h-.22v-3.16h-4.18v18.58h4.38v-10.88c0-.89.17-1.66.5-2.29.33-.63.8-1.11,1.39-1.45.59-.33,1.27-.5,2.04-.5,1.13,0,2.01.35,2.65,1.05.64.7.96,1.67.96,2.92v11.15h4.38v-11.83c0-1.48-.25-2.75-.78-3.79s-1.27-1.83-2.23-2.38Z"/>
</svg>